<svg version="1.1" id="Layer_1" xmlns="http://www.w3.org/2000/svg" xmlns:xlink="http://www.w3.org/1999/xlink" x="0px" y="0px"
	 width="100%" viewBox="0 0 496 496" enable-background="new 0 0 496 496" xml:space="preserve">
<path fill="#000000" opacity="1.000000" stroke="none" 
	d="
M174.574219,117.613739 
	C176.504196,114.505638 178.258957,111.715500 180.327805,108.425972 
	C183.322937,111.766922 182.168228,115.484016 182.711746,118.665154 
	C186.800873,142.598984 198.035126,163.168137 212.348999,182.291046 
	C214.463318,185.115723 215.793320,187.851700 215.229507,191.435837 
	C212.173904,210.860352 220.708832,225.246109 235.190552,236.992233 
	C244.065002,244.190323 254.337219,249.008072 264.446991,254.111969 
	C273.512665,258.688782 282.526703,263.369049 291.530121,268.067627 
	C297.366760,271.113556 302.237518,275.386536 306.495422,280.363647 
	C316.324280,291.852661 311.453186,308.819794 297.075043,313.555542 
	C295.144806,314.191284 293.924011,313.812622 292.710052,312.396271 
	C270.209503,286.144989 243.114532,264.534790 219.235916,239.674210 
	C205.594589,225.471924 192.632751,210.740921 182.898026,193.466797 
	C182.692642,193.102341 182.269821,192.860413 181.194412,191.859619 
	C181.194412,203.433884 181.419418,214.201218 181.151413,224.956299 
	C180.405334,254.897873 179.632797,284.838867 177.297897,314.718353 
	C176.721710,322.091644 173.089737,327.870880 168.205170,334.464600 
	C179.426971,336.888336 189.984482,335.258270 200.499207,335.670593 
	C192.804169,346.193268 157.240128,356.495880 142.629532,352.419617 
	C143.025513,350.121735 145.072418,349.195343 146.647171,348.409821 
	C154.822662,344.331635 156.991745,337.314545 157.717224,328.840759 
	C160.273422,298.983276 161.463898,269.096893 162.003525,239.130478 
	C162.572952,207.508026 162.531158,175.889816 162.716080,144.270370 
	C162.747650,138.872025 163.834961,134.189240 166.987213,129.788651 
	C169.696075,126.007011 171.946075,121.896683 174.574219,117.613739 
z"/>
<path fill="#000000" opacity="1.000000" stroke="none" 
	d="
M267.183167,151.193176 
	C247.115448,162.992661 244.175095,188.656387 260.455719,205.813171 
	C268.296570,214.075943 277.937683,219.563995 287.862366,224.744019 
	C302.165680,232.209396 317.402710,238.013489 330.296082,248.003738 
	C340.755005,256.107727 347.928345,266.075745 347.352936,280.146362 
	C346.981842,289.221252 342.396210,296.517212 336.662628,302.735535 
	C316.669495,324.419067 292.562714,340.085175 263.664093,346.493713 
	C246.272919,350.350372 229.705902,344.481171 214.488586,335.751556 
	C209.771317,333.045410 208.944290,327.118988 212.651779,323.200562 
	C219.155624,316.326691 227.120880,311.162811 235.177658,305.292725 
	C231.810196,314.935211 238.567856,317.925659 244.752777,320.729462 
	C265.156982,329.979248 285.783997,330.107147 306.031342,320.474976 
	C321.891418,312.929871 326.940796,290.961487 316.701965,276.668762 
	C311.250671,269.059082 304.174133,263.365875 296.098999,258.815979 
	C281.006165,250.312027 264.864990,243.823868 250.012619,234.853668 
	C243.401230,230.860672 237.379135,226.185745 232.635239,220.019547 
	C222.390884,206.703766 222.500763,192.747360 230.244720,178.423965 
	C236.821655,166.259125 246.691025,157.096237 257.819794,149.266983 
	C271.979553,139.305389 287.345093,131.833740 304.419403,128.308777 
	C316.720764,125.769180 328.920013,126.700500 340.943665,130.045486 
	C342.973297,130.610123 344.912933,131.803680 346.648193,133.049301 
	C349.243561,134.912338 349.707764,137.515839 347.600647,139.968399 
	C341.362701,147.228989 333.659546,152.570877 324.364502,157.666473 
	C325.715637,151.310883 322.061523,149.610992 318.052460,148.436295 
	C300.917328,143.415482 283.983124,142.859177 267.183167,151.193176 
z"/>
<path fill="#000000" opacity="1.000000" stroke="none" 
	d="
M336.925262,240.082855 
	C329.020599,236.190445 327.298004,230.319382 327.822662,221.968414 
	C328.865356,205.371643 328.575500,188.685303 328.605865,172.035568 
	C328.612122,168.599945 329.708557,166.582947 332.685944,164.878952 
	C337.375336,162.195114 341.780090,159.013977 347.305908,155.386551 
	C347.470520,185.775986 345.267365,214.895767 344.176575,244.249390 
	C340.631012,244.383316 339.438293,241.443176 336.925262,240.082855 
z"/>
<path fill="#000000" opacity="1.000000" stroke="none" 
	d="
M313.158386,340.700592 
	C312.291107,338.893280 311.088806,337.327301 313.100189,336.006195 
	C322.371979,329.916626 331.106415,323.128357 339.917084,315.953979 
	C334.043457,329.050140 326.495270,341.231659 322.077362,354.891449 
	C321.594635,354.879913 321.111877,354.868378 320.629150,354.856842 
	C318.198792,350.247833 315.768433,345.638824 313.158386,340.700592 
z"/>
<path fill="#000000" opacity="1.000000" stroke="none" 
	d="
M359.466248,121.691917 
	C355.847382,124.786247 352.602264,124.654617 348.872681,122.278854 
	C346.305511,120.643555 343.183380,119.879463 339.268524,118.308273 
	C347.643524,115.880943 354.802856,117.997963 362.052795,118.259399 
	C361.931183,120.612999 360.658112,120.879555 359.466248,121.691917 
z"/>
</svg>